<?xml version="1.0" encoding="UTF-8" standalone="no"?>
<!-- Created with Inkscape (http://www.inkscape.org/) -->

<svg
   xmlns:dc="http://purl.org/dc/elements/1.1/"
   xmlns:cc="http://creativecommons.org/ns#"
   xmlns:rdf="http://www.w3.org/1999/02/22-rdf-syntax-ns#"
   xmlns:svg="http://www.w3.org/2000/svg"
   xmlns="http://www.w3.org/2000/svg"
   xmlns:sodipodi="http://sodipodi.sourceforge.net/DTD/sodipodi-0.dtd"
   xmlns:inkscape="http://www.inkscape.org/namespaces/inkscape"
   version="1.1"
   width="407.0625"
   height="207.625"
   id="svg2"
   xml:space="preserve"
   inkscape:version="0.48.2 r9819"
   sodipodi:docname="AJAX1.svg"><sodipodi:namedview
     pagecolor="#ffffff"
     bordercolor="#666666"
     borderopacity="1"
     objecttolerance="10"
     gridtolerance="10"
     guidetolerance="10"
     inkscape:pageopacity="0"
     inkscape:pageshadow="2"
     inkscape:window-width="1280"
     inkscape:window-height="1004"
     id="namedview19"
     showgrid="false"
     inkscape:zoom="1.434361"
     inkscape:cx="191.20942"
     inkscape:cy="157.4587"
     inkscape:window-x="-8"
     inkscape:window-y="-8"
     inkscape:window-maximized="1"
     inkscape:current-layer="svg2"
     fit-margin-top="0"
     fit-margin-left="0"
     fit-margin-right="0"
     fit-margin-bottom="0"
     showguides="true"
     inkscape:guide-bbox="true" /><defs
     id="defs20" /><metadata
     id="metadata8"><rdf:RDF><cc:Work
         rdf:about=""><dc:format>image/svg+xml</dc:format><dc:type
           rdf:resource="http://purl.org/dc/dcmitype/StillImage" /><dc:title /></cc:Work></rdf:RDF></metadata><path
     inkscape:connector-curvature="0"
     d="m 203.51754,0.996293 -182.62937,0 c -10.989,0 -19.89707,8.9049385 -19.89707,19.887697 l 0,165.84434 c 0,10.98588 8.90807,19.89082 19.89707,19.89082 l 365.25874,0 c 10.989,0 19.90019,-8.90494 19.90019,-19.89082 l 0,-165.84434 c 0,-10.9827585 -8.91119,-19.887697 -19.90019,-19.887697 l -182.62937,0 z"
     style="fill:#ffffff;fill-opacity:1;fill-rule:evenodd;stroke:#e22739;stroke-width:1.99970567;stroke-linecap:butt;stroke-linejoin:miter;stroke-miterlimit:10;stroke-opacity:1;stroke-dasharray:none"
     id="path3515" /><path
     inkscape:connector-curvature="0"
     d="m 203.51754,10.882337 -182.57312,0 c -5.49607,0 -9.94854,4.45247 -9.94854,9.945411 l 0,165.956822 c 0,5.49294 4.45247,9.9454 9.94854,9.9454 l 365.14625,0 c 5.49606,0 9.94852,-4.45246 9.94852,-9.9454 l 0,-165.956822 c 0,-5.492941 -4.45246,-9.945411 -9.94852,-9.945411 l -182.57313,0"
     style="fill:#e22739;fill-opacity:1;fill-rule:evenodd;stroke:none"
     id="path3517" /><path
     inkscape:connector-curvature="0"
     d="m 169.1726,138.30108 -11.46707,0 0,37.19141 6.29595,0 0,-16.06639 15.40086,0 0,-5.8429 -15.40086,0 0,-9.55171 16.97562,0 0,-5.73041 -9.32987,0"
     style="fill:#ffffff;fill-opacity:1;fill-rule:evenodd;stroke:none"
     id="path3519" /><path
     inkscape:connector-curvature="0"
     d="m 204.36117,137.62618 c 9.66732,0 17.87549,7.98007 17.87549,19.21593 0,11.23584 -7.75824,19.55024 -17.87549,19.55024 -10.00478,0 -17.76301,-8.3144 -17.76301,-19.55024 0,-11.23586 8.20816,-19.21593 17.76301,-19.21593 z m 0,5.95537 c 7.53327,0 11.24209,7.41766 11.24209,13.37303 0,5.95538 -3.59634,13.70736 -11.24209,13.70736 -7.53327,0 -11.12962,-7.75198 -11.12962,-13.70736 0,-5.95537 3.70883,-13.37303 11.12962,-13.37303"
     style="fill:#ffffff;fill-opacity:1;fill-rule:evenodd;stroke:none"
     id="path3521" /><path
     inkscape:connector-curvature="0"
     d="m 244.60837,143.919 -7.42079,0 0,11.34833 7.3083,0 c 3.2589,0 5.62105,-3.03393 5.62105,-5.73041 0,-2.80895 -2.58712,-5.61792 -5.50856,-5.61792 z m 1.01235,-5.61792 -15.06653,0 0,37.19141 6.63339,0 0,-14.60724 6.52092,0 6.74588,14.60724 7.19582,0 -7.75824,-15.50397 c 2.02471,-1.23733 6.85837,-4.27125 6.85837,-10.4516 0,-6.2897 -5.28359,-11.23584 -11.12961,-11.23584"
     style="fill:#ffffff;fill-opacity:1;fill-rule:evenodd;stroke:none"
     id="path3523" /><path
     inkscape:connector-curvature="0"
     d="m 298.56918,147.06542 -5.9585,2.69648 c -1.57164,-3.2589 -4.49623,-6.40531 -9.2174,-6.40531 -5.84601,0 -11.12961,5.39608 -11.12961,13.26054 0,7.75199 4.27125,14.04481 11.12961,14.04481 6.85837,0 8.87995,-5.73041 9.2174,-6.40531 l 5.9585,2.80896 c -1.45917,2.584 -5.50857,9.32676 -15.28838,9.32676 -9.66733,0 -17.65053,-7.07709 -17.65053,-19.32528 0,-13.14807 9.22052,-19.44089 17.31308,-19.44089 8.20817,0 13.04183,4.6087 15.62583,9.43924"
     style="fill:#ffffff;fill-opacity:1;fill-rule:evenodd;stroke:none"
     id="path3525" /><path
     inkscape:connector-curvature="0"
     d="m 319.14427,138.30108 -11.46706,0 0,37.19141 24.17144,0 0,-5.8429 -17.8755,0 0,-10.22349 15.51335,0 0,-5.73041 -15.51335,0 0,-9.55171 17.08812,0 0,-5.8429 -3.82444,0"
     style="fill:#ffffff;fill-opacity:1;fill-rule:evenodd;stroke:none"
     id="path3527" /><path
     inkscape:connector-curvature="0"
     d="m 127.68808,157.62949 0,-19.32841 -6.40844,0 0,26.85543 -17.64739,-26.85543 -7.3083,0 0,37.19141 6.29594,0 0,-26.96478 17.53804,26.96478 7.53015,0 0,-11.01088"
     style="fill:#ffffff;fill-opacity:1;fill-rule:evenodd;stroke:none"
     id="path3529" /><path
     inkscape:connector-curvature="0"
     d="m 76.64871,138.30108 6.63341,0 0,37.19141 -6.63341,0 0,-37.19141 z"
     style="fill:#ffffff;fill-opacity:1;fill-rule:nonzero;stroke:none"
     id="path3531" /><path
     inkscape:connector-curvature="0"
     d="m 194.13142,90.998669 -8.54562,0 0,25.618101 8.43314,0 c 4.49621,0 8.76746,-4.27124 8.76746,-12.47316 0,-8.314402 -3.9338,-13.144941 -8.65498,-13.144941 z m 0.78738,-5.84289 -15.8539,0 0,37.191401 15.8539,0 c 7.53015,0 14.27603,-7.41766 14.27603,-18.42854 0.11248,-11.123361 -6.85836,-18.762861 -14.27603,-18.762861"
     style="fill:#ffffff;fill-opacity:1;fill-rule:evenodd;stroke:none"
     id="path3533" /><path
     inkscape:connector-curvature="0"
     d="m 63.83497,90.548735 -5.06175,3.818188 c -2.02157,-2.13406 -4.72118,-4.380604 -8.87994,-4.380604 -4.15876,0 -6.97085,2.47151 -6.97085,5.055505 -0.11248,3.708828 2.6996,4.496213 8.20816,5.505436 3.82132,0.6749 6.74589,1.01235 9.44237,3.14641 2.58712,2.02471 3.93379,4.72119 3.93379,8.08944 0,3.2589 -2.13405,11.5733 -14.16353,11.5733 -9.44237,0 -14.05419,-5.28047 -15.73831,-7.30205 l 5.62104,-4.04629 c 2.35903,3.70884 6.52091,5.61793 9.55485,5.61793 2.92456,0 8.09568,-1.12171 8.09568,-5.73041 0,-4.60557 -5.62105,-4.94302 -10.90465,-5.84289 -5.28671,-1.00922 -10.6828,-3.59322 -10.6828,-10.785909 0,-7.189567 7.08333,-10.673429 13.60425,-10.673429 6.52091,0 11.12961,2.134061 13.94169,5.955373"
     style="fill:#ffffff;fill-opacity:1;fill-rule:evenodd;stroke:none"
     id="path3535" /><path
     inkscape:connector-curvature="0"
     d="m 86.76911,90.773702 -6.18347,0 0,12.470038 6.74275,0 c 3.26202,0 5.9585,-3.03393 5.9585,-6.289698 0,-3.258895 -2.584,-6.18034 -6.51778,-6.18034 z m 2.24653,17.975478 -8.43,0 0,13.598 -6.29595,0 0,-37.078917 14.3885,0 c 6.18347,0 11.01713,6.067856 11.01713,12.132589 0,5.505438 -5.39608,11.348328 -10.67968,11.348328"
     style="fill:#ffffff;fill-opacity:1;fill-rule:evenodd;stroke:none"
     id="path3537" /><path
     inkscape:connector-curvature="0"
     d="m 120.27042,85.155779 -11.46706,0 0,37.191401 24.16831,0 0,-5.73041 -17.87237,0 0,-10.22662 15.51334,0 0,-5.84289 -15.51334,0 0,-9.436107 17.08811,0 0,-5.955374 -3.93692,0"
     style="fill:#ffffff;fill-opacity:1;fill-rule:evenodd;stroke:none"
     id="path3539" /><path
     inkscape:connector-curvature="0"
     d="m 155.3465,85.155779 -11.47017,0 0,37.191401 24.17143,0 0,-5.73041 -17.763,0 0,-10.22662 15.40397,0 0,-5.84289 -15.40397,0 0,-9.436107 17.08809,0 0,-5.955374 -3.93379,0"
     style="fill:#ffffff;fill-opacity:1;fill-rule:evenodd;stroke:none"
     id="path3541" /><path
     inkscape:connector-curvature="0"
     d="m 360.85062,122.34718 2.92458,0 0,-31.348511 10.11726,0 0,-5.730406 -26.64295,0 0,5.730406 10.00477,0 0,31.348511 2.81209,0"
     style="fill:#ffffff;fill-opacity:1;fill-rule:evenodd;stroke:none"
     id="path3543" /><path
     inkscape:connector-curvature="0"
     d="m 242.92111,98.300719 0,-13.032456 -6.29594,0 0,37.078917 20.80006,0 0,-5.84289 -14.50412,0 0,-13.598"
     style="fill:#ffffff;fill-opacity:1;fill-rule:evenodd;stroke:none"
     id="path3545" /><path
     inkscape:connector-curvature="0"
     d="m 264.84288,85.268263 6.63341,0 0,37.078917 -6.63341,0 0,-37.078917 z"
     style="fill:#ffffff;fill-opacity:1;fill-rule:nonzero;stroke:none"
     id="path3547" /><path
     inkscape:connector-curvature="0"
     d="m 320.15662,108.41486 0,13.93232 -6.29595,0 0,-27.867773 -11.57954,14.719713 -11.46706,-14.719713 0,27.867773 -6.29596,0 0,-37.078917 7.30831,0 10.45471,13.707357 10.56718,-13.707357 7.30831,0 0,9.211144"
     style="fill:#ffffff;fill-opacity:1;fill-rule:evenodd;stroke:none"
     id="path3549" /><path
     inkscape:connector-curvature="0"
     d="m 333.19532,85.268263 6.63341,0 0,37.078917 -6.63341,0 0,-37.078917 z"
     style="fill:#ffffff;fill-opacity:1;fill-rule:nonzero;stroke:none"
     id="path3551" /><path
     inkscape:connector-curvature="0"
     d="m 90.14048,32.119836 -11.46706,0 0,37.1914 24.17144,0 0,-5.842889 -17.87549,0 0,-10.223495 15.51334,0 0,-5.730407 -15.51334,0 0,-9.551719 17.0881,0 0,-5.84289 -3.82443,0"
     style="fill:#ffffff;fill-opacity:1;fill-rule:evenodd;stroke:none"
     id="path3553" /><path
     inkscape:connector-curvature="0"
     d="m 65.29414,51.445116 0,-19.32528 -6.40843,0 0,26.855422 -17.64741,-26.855422 -7.42078,0 0,37.1914 6.40843,0 0,-26.964781 17.53804,26.964781 7.53015,0 0,-11.010878"
     style="fill:#ffffff;fill-opacity:1;fill-rule:evenodd;stroke:none"
     id="path3555" /><path
     inkscape:connector-curvature="0"
     d="m 132.52174,32.119836 -2.80896,0 -6.07098,25.843071 -6.40843,-25.843071 -6.74589,0 8.65811,37.1914 7.64574,0 6.63028,-27.864648 6.52091,27.864648 7.75824,0 8.87993,-37.1914 -6.97084,0 -6.18035,25.955555 -6.18346,-25.955555 -3.14953,0"
     style="fill:#ffffff;fill-opacity:1;fill-rule:evenodd;stroke:none"
     id="path3557" /><path
     inkscape:connector-curvature="0"
     d="m 295.42277,55.378913 0,13.932323 -6.29595,0 0,-27.977132 -11.57955,14.832192 -11.35458,-14.832192 0,27.977132 -6.40843,0 0,-37.1914 7.42078,0 10.34223,13.819841 10.56718,-13.819841 7.30832,0 0,9.214268"
     style="fill:#ffffff;fill-opacity:1;fill-rule:evenodd;stroke:none"
     id="path3559" /><path
     inkscape:connector-curvature="0"
     d="m 359.61643,46.502094 6.63341,0 0,-14.382258 6.29282,0 0,37.1914 -6.29282,0 0,-17.078735 -16.75379,0 0,17.078735 -6.29282,0 0,-37.1914 6.29282,0 0,14.382258 6.18346,0"
     style="fill:#ffffff;fill-opacity:1;fill-rule:evenodd;stroke:none"
     id="path3561" /><path
     inkscape:connector-curvature="0"
     d="m 321.27832,37.737759 -6.29593,0 0,12.473164 6.74588,0 c 3.3745,0 5.95848,-3.033928 5.95848,-6.292824 0,-3.258896 -2.4715,-6.18034 -6.40843,-6.18034 z m 2.24968,17.978604 -8.54561,0 0,13.594873 -6.29283,0 0,-37.1914 14.50099,0 c 6.07098,0 11.01713,6.067857 11.01713,12.135714 0,5.505439 -5.39609,11.460813 -10.67968,11.460813"
     style="fill:#ffffff;fill-opacity:1;fill-rule:evenodd;stroke:none"
     id="path3563" /><path
     inkscape:connector-curvature="0"
     d="m 226.05797,31.219968 c -8.09568,0 -14.83844,6.855242 -14.83844,19.328405 0,12.80749 6.96773,19.325281 14.83844,19.325281 7.75824,0 14.83844,-6.517791 14.83844,-19.325281 0,-12.473163 -6.85524,-19.328405 -14.83844,-19.328405 z m 0,5.84289 c -4.04628,0 -8.43001,3.708829 -8.43001,13.485515 0,9.661078 4.27125,13.369908 8.43001,13.369908 4.15877,0 8.32065,-3.70883 8.32065,-13.369908 0,-9.776686 -4.27437,-13.485515 -8.32065,-13.485515"
     style="fill:#ffffff;fill-opacity:1;fill-rule:evenodd;stroke:none"
     id="path3565" /><path
     inkscape:connector-curvature="0"
     d="m 183.67671,57.850424 -6.6334,1.237317 c 0,4.943023 4.83367,10.673429 14.05106,10.673429 8.88307,0 12.81686,-5.730406 12.81686,-11.460812 0,-6.292825 -4.38373,-7.976951 -4.38373,-7.976951 0,0 3.93381,-1.799736 3.93381,-7.080209 0,-5.392956 -2.58401,-11.573296 -12.81687,-11.573296 -9.66734,0 -13.60113,7.080208 -13.60113,11.573296 l 6.6334,0.899868 c 0,-3.146412 2.13406,-6.630274 7.41766,-6.630274 5.2836,0 6.18346,3.933796 6.18346,5.280473 0,0.899867 0.89986,5.283597 -9.21739,5.283597 l 0,4.830539 c 3.03393,0 6.18347,0 7.98008,1.346677 1.23731,1.349802 1.23731,3.146411 1.23731,4.04628 0,0.787383 -0.44993,5.730406 -6.63339,5.730406 -6.07099,0 -6.96773,-4.493089 -6.96773,-6.18034"
     style="fill:#ffffff;fill-opacity:1;fill-rule:evenodd;stroke:none"
     id="path3567" /></svg>