<?xml version="1.0" encoding="utf-8"?>
<!-- Generator: Adobe Illustrator 16.0.3, SVG Export Plug-In . SVG Version: 6.00 Build 0)  -->
<!DOCTYPE svg PUBLIC "-//W3C//DTD SVG 1.1//EN" "http://www.w3.org/Graphics/SVG/1.1/DTD/svg11.dtd">
<svg version="1.1" id="Layer_1" xmlns="http://www.w3.org/2000/svg" xmlns:xlink="http://www.w3.org/1999/xlink" x="0px" y="0px"
	 width="154.407px" height="117.779px" viewBox="0 0 154.407 117.779" enable-background="new 0 0 154.407 117.779"
	 xml:space="preserve">
<polygon fill-rule="evenodd" clip-rule="evenodd" fill="#E03A3E" points="0.85,10.95 0.85,10.95 1.194,8.336 2.203,5.9 3.808,3.808 
	5.9,2.203 8.336,1.195 10.95,0.85 143.457,0.85 146.072,1.195 148.508,2.203 150.6,3.808 152.205,5.9 153.212,8.336 153.557,10.95 
	153.557,106.83 153.212,109.443 152.205,111.879 150.6,113.971 148.508,115.576 146.072,116.585 143.457,116.93 10.95,116.93 
	8.336,116.585 5.9,115.576 3.808,113.971 2.203,111.879 1.194,109.443 0.85,106.83 "/>
<polygon fill-rule="evenodd" clip-rule="evenodd" fill="#FFFFFF" points="24.915,17.953 24.915,17.953 23.124,18.245 21.521,19.07 
	20.432,20.224 19.986,21.09 19.376,23.898 19.326,25.089 19.651,27.945 19.986,29.088 20.807,30.448 21.521,31.11 23.136,31.938 
	24.915,32.227 26.561,31.93 28.004,31.086 29.074,29.801 29.534,28.699 32.63,29.305 31.747,31.354 30.321,33.072 28.468,34.318 
	26.339,34.991 24.915,35.096 22.41,34.852 20.27,33.889 18.489,32.36 17.805,31.458 16.74,29.237 16.458,28.16 16.107,25.089 
	16.458,22.02 17.252,19.688 17.805,18.721 19.358,16.961 21.347,15.713 22.41,15.327 24.915,15.083 27.129,15.361 29.178,16.25 
	30.892,17.681 32.132,19.536 32.63,20.875 29.534,21.48 28.813,19.972 27.621,18.8 26.099,18.105 "/>
<path fill-rule="evenodd" clip-rule="evenodd" fill="#FFFFFF" d="M45.02,35.095L45.02,35.095l2.491-0.244l2.145-0.962l1.787-1.529
	l0.687-0.902l1.064-2.222l0.283-1.077l0.336-3.07l-0.336-3.07l-0.795-2.332l-0.552-0.967l-1.56-1.76l-1.993-1.247l-1.066-0.387
	l-2.491-0.243l-2.491,0.243l-2.145,0.963l-1.787,1.529L37.91,18.72l-1.064,2.222l-0.283,1.077l-0.336,3.07l0.336,3.07l0.795,2.332
	l0.552,0.967l1.56,1.76l1.993,1.247l1.066,0.386L45.02,35.095z M45.02,32.227L45.02,32.227l1.784-0.293l1.596-0.824l1.098-1.154
	l0.451-0.867l0.599-2.809l0.047-1.191l-0.316-2.854l-0.33-1.144l-0.829-1.36l-0.72-0.661l-1.607-0.827l-1.773-0.29l-1.784,0.294
	l-1.596,0.823l-1.098,1.154L40.09,21.09l-0.599,2.809l-0.047,1.19l0.316,2.855l0.33,1.144l0.829,1.36l0.72,0.661l1.608,0.827
	L45.02,32.227"/>
<polygon fill-rule="evenodd" clip-rule="evenodd" fill="#FFFFFF" points="61.987,34.516 56.425,15.663 59.657,15.663 63.966,30.261 
	68.276,15.663 71.508,15.663 65.933,34.516 "/>
<rect x="76.086" y="15.663" fill-rule="evenodd" clip-rule="evenodd" fill="#FFFFFF" width="3.231" height="18.853"/>
<path fill-rule="evenodd" clip-rule="evenodd" fill="#FFFFFF" d="M98.871,32.159L98.871,32.159l1.539-2.406l0.864-2.724l0.169-1.939
	l-0.367-2.833l-1.089-2.643l-1.116-1.594l-1.598-1.313l-1.904-0.81l-2.055-0.24l-0.18,0.006h-7.137v18.853h7.137l2.061-0.19
	l1.924-0.762l1.631-1.274L98.871,32.159z M98.21,25.09L98.21,25.09l-0.336,2.477l-0.74,1.805l-1.006,1.207l-1.355,0.792
	l-1.438,0.277H89.23V18.531h4.105l1.539,0.317l1.338,0.824l0.922,1.136l0.875,2.341L98.21,25.09"/>
<rect x="104.312" y="24.995" fill-rule="evenodd" clip-rule="evenodd" fill="#FFFFFF" width="5.844" height="2.788"/>
<polygon fill-rule="evenodd" clip-rule="evenodd" fill="#FFFFFF" points="115.744,18.478 113.603,18.626 113.603,21.144 
	116.754,21.144 116.754,34.516 119.986,34.516 119.986,15.663 117.292,15.663 117.024,17.454 116.708,18.012 116.184,18.376 "/>
<path fill-rule="evenodd" clip-rule="evenodd" fill="#FFFFFF" d="M138.394,23.407L138.394,23.407l-0.014-0.351l-0.446-2.49
	l-0.037-0.109l-0.938-2.069l-1.48-1.72l-0.423-0.345l-1.763-0.844l-1.726-0.26l-2.074,0.259l-1.893,0.888l-0.961,0.792l-1.195,1.83
	l-0.571,2.11l0.109,2.182l0.777,2.043l0.69,0.992l0.081,0.095l1.596,1.148L130,28.159l0.719,0.068l1.818-0.219l1.647-0.765
	l1.046-0.901l-0.158,2.205l-0.421,1.337l-0.755,1.029l-1.063,0.707l-1.24,0.304l-1.268-0.14l-1.144-0.566l-0.884-0.922l-0.34-0.641
	l-2.773,0.902l1.009,1.763l1.506,1.364l1.853,0.831l2.021,0.219l1.989-0.416l1.762-1.011l0.242-0.204l0.269-0.27l1.537-2.409
	l0.86-2.723l0.147-1.238L138.394,23.407z M134.355,19.528L134.355,19.528l-0.949-0.841l-1.18-0.465l-1.268-0.033l-1.203,0.402
	l-0.994,0.788l-0.103,0.122l-0.543,1.503l0.005,1.598l0.551,1.5l0.976,0.88l1.176,0.461l1.263,0.03l1.196-0.403l0.987-0.789
	l0.111-0.134l0.565-1.377l0.06-1.487l-0.453-1.417L134.355,19.528"/>
<rect x="14.316" y="39.498" fill-rule="evenodd" clip-rule="evenodd" fill="#FFFFFF" width="125.774" height="3.367"/>
<polyline fill-rule="evenodd" clip-rule="evenodd" fill="#FFFFFF" points="30.685,61.422 35.802,62.593 37.361,63.209 38.615,64.32 
	39.413,65.794 39.658,67.451 39.532,68.424 39.424,68.908 38.629,70.744 38.185,71.359 36.931,72.515 35.381,73.226 34.725,73.365 
	32.073,73.527 29.47,72.996 28.18,72.449 26.127,70.988 25.137,69.919 27.669,67.871 29.305,69.523 30.443,70.242 32.23,70.64 
	34.055,70.465 35.196,70.039 35.424,69.892 36.088,69.271 36.462,68.443 36.492,67.537 36.172,66.688 35.552,66.025 34.726,65.65 
	29.661,64.505 28.166,63.811 26.959,62.688 26.157,61.248 25.841,59.63 25.89,58.688 26.384,57.099 27.345,55.742 28.678,54.746 
	29.325,54.46 32.046,53.95 34.807,54.162 34.994,54.204 36.854,54.815 38.435,55.971 39.29,57.046 36.785,59.078 35.714,57.826 
	34.279,57.016 33.782,56.871 31.894,56.764 30.469,57.085 29.736,57.514 29.223,58.189 29.006,59.01 29.056,59.617 29.317,60.402 
	29.859,61.029 30.601,61.4 "/>
<polygon fill-rule="evenodd" clip-rule="evenodd" fill="#FFFFFF" points="45.188,71.252 45.188,71.252 45.026,70 45.026,63.051 
	45.026,62.215 42.697,62.215 42.697,59.697 45.026,59.697 45.026,55.388 47.989,54.312 47.989,59.697 51.584,59.697 51.584,62.215 
	47.989,62.215 47.989,63.051 47.989,69.528 48.083,69.963 48.355,70.313 48.753,70.51 50.424,70.535 51.248,70.351 51.558,72.989 
	48.555,73.366 47.328,73.237 46.75,73.016 45.829,72.35 45.233,71.383 "/>
<path fill-rule="evenodd" clip-rule="evenodd" fill="#FFFFFF" d="M57.631,65.125L57.631,65.125l4.161-0.484v-1.092l-0.203-0.754
	l-0.188-0.229l-0.776-0.455l-0.881-0.125l-2.891,0.527l-1.363,0.537l-1.091-2.369l3.123-1.033l1.616-0.248l2.47,0.127l0.184,0.035
	l1.33,0.729l1.003,1.14l0.552,1.414l0.077,0.609v6.732l0.121,0.426l0.294,0.332l0.878,0.469l-1.494,2.262l-1.367-0.587l-0.897-0.786
	l-1.487,0.86l-1.682,0.358l-1.71-0.18l-1.57-0.697l-0.472-0.342l-0.925-1.023l-0.519-1.275l-0.052-1.378l0.423-1.312l0.562-0.803
	l1.412-0.982L57.631,65.125z M61.159,70.498L61.159,70.498l0.488-0.573l0.145-0.384v-2.518l-2.923,0.309l-0.619,0.109l-0.753,0.336
	l-0.532,0.631l-0.203,0.841l0.101,0.603l0.434,0.584l0.172,0.129l1.061,0.479l1.164,0.037l1.267-0.457L61.159,70.498"/>
<polygon fill-rule="evenodd" clip-rule="evenodd" fill="#FFFFFF" points="68.013,59.697 72.619,73.742 72.623,74.224 72.538,74.47 
	72.302,74.82 72.066,74.982 71.428,75.168 71.285,75.17 69.356,74.904 68.862,77.353 71.077,77.688 72.969,77.473 73.908,77.066 
	74.612,76.343 75.204,74.982 80.227,59.697 77.103,59.697 74.113,68.802 71.137,59.697 "/>
<polygon fill-rule="evenodd" clip-rule="evenodd" fill="#FFFFFF" points="95.862,57.166 95.862,57.166 95.001,57.671 94.4,58.466 
	94.286,58.742 94.111,60.115 94.111,61.045 90.972,61.045 90.972,59.549 91.189,58.324 91.912,56.664 93.16,55.353 94.434,54.662 
	96.611,54.081 98.86,54.201 100.642,54.836 101.909,55.741 102.791,57.024 102.89,57.261 103.48,59.328 103.462,61.479 
	102.839,63.537 101.664,65.336 101.397,65.623 98.076,68.792 95.996,70.296 103.537,70.296 103.537,73.164 90.972,73.164 
	90.972,70.296 95.429,67.307 98.46,64.6 99.585,63.143 100.205,61.406 100.304,60.223 100.007,58.47 99.875,58.136 99.214,57.465 
	98.878,57.274 97.599,56.924 96.277,57.032 "/>
<polygon fill-rule="evenodd" clip-rule="evenodd" fill="#FFFFFF" points="117.448,62.795 117.448,62.795 116.921,62.367 
	116.384,62.215 115.251,62.344 114.863,62.5 114.132,63.069 113.675,63.875 113.556,64.668 113.556,73.164 110.593,73.164 
	110.593,59.697 113.556,59.697 113.556,60.774 114.894,59.879 116.457,59.496 118.056,59.67 119.333,60.264 120.222,61.18 
	121.517,60.112 123.099,59.555 124.778,59.57 126.349,60.159 127.624,61.25 127.884,61.596 128.468,63.164 128.544,63.887 
	128.544,73.164 125.582,73.164 125.582,64.559 125.324,63.41 124.949,62.781 124.415,62.352 123.872,62.202 122.74,62.33 
	122.349,62.484 121.617,63.061 121.161,63.873 121.044,64.668 121.044,73.164 118.08,73.164 118.08,64.559 117.823,63.42 "/>
<path fill-rule="evenodd" clip-rule="evenodd" fill="#FFFFFF" d="M48.306,92.058L48.306,92.058l4.161-0.485v-1.091l-0.203-0.754
	l-0.188-0.229l-0.777-0.455l-0.88-0.123l-2.891,0.525l-1.363,0.538l-1.091-2.37l3.123-1.033l1.616-0.246l2.47,0.125l0.184,0.037
	l1.33,0.729l1.003,1.141l0.551,1.414l0.078,0.608v6.733l0.121,0.426l0.294,0.33l0.878,0.47l-1.494,2.262l-1.367-0.587l-0.897-0.787
	l-1.487,0.861l-1.682,0.357l-1.71-0.179l-1.571-0.696l-0.471-0.344l-0.925-1.021l-0.519-1.276l-0.052-1.378l0.423-1.313l0.562-0.801
	l1.412-0.984L48.306,92.058z M51.834,97.431L51.834,97.431l0.488-0.573l0.145-0.384v-2.519l-2.923,0.31l-0.619,0.108l-0.753,0.338
	L47.64,95.34l-0.203,0.842l0.101,0.602l0.434,0.586l0.172,0.127l1.061,0.479l1.164,0.037l1.267-0.457L51.834,97.431"/>
<path fill-rule="evenodd" clip-rule="evenodd" fill="#FFFFFF" d="M69.852,99.409L69.852,99.409l-1.798,0.83l-0.976,0.194
	l-1.717-0.117l-1.573-0.697l-0.373-0.277l-0.243-0.229v5.197h-2.963V86.643h2.963v1.051l0.243-0.202l1.549-0.854l1.748-0.275
	l1.456,0.242l1.689,0.809l1.357,1.291l0.891,1.646l0.13,0.414l0.37,2.469l-0.28,2.482l-0.036,0.139l-0.761,1.763l-0.25,0.366
	l-1.193,1.257L69.852,99.409z M68.478,90.387L68.478,90.387l0.821,1.471l0.268,1.662l-0.315,1.653l-0.774,1.341l-0.976,0.727
	l-1.179,0.295l-1.202-0.178l-0.872-0.479l-0.65-0.723l-0.323-0.919l-0.023-0.23v-1.549v-1.561l0.237-0.944l0.58-0.78l0.179-0.148
	l1.085-0.547l1.212-0.09l1.155,0.379L68.478,90.387"/>
<path fill-rule="evenodd" clip-rule="evenodd" fill="#FFFFFF" d="M79.143,92.058L79.143,92.058l4.161-0.485v-1.091l-0.202-0.754
	l-0.188-0.229l-0.777-0.455l-0.879-0.123l-2.891,0.525l-1.364,0.538l-1.092-2.37l3.124-1.033l1.616-0.246l2.469,0.125l0.185,0.037
	l1.332,0.729l1.002,1.141l0.551,1.414l0.078,0.608v6.733l0.121,0.426l0.293,0.33l0.879,0.47l-1.495,2.262l-1.366-0.587l-0.896-0.787
	l-1.488,0.861l-1.682,0.357l-1.709-0.179l-1.571-0.696l-0.471-0.344l-0.924-1.021l-0.52-1.276l-0.052-1.378l0.423-1.313l0.561-0.801
	l1.413-0.984L79.143,92.058z M82.671,97.431L82.671,97.431l0.488-0.573l0.145-0.384v-2.519l-2.922,0.31l-0.619,0.108l-0.754,0.338
	l-0.531,0.629l-0.203,0.842l0.1,0.602l0.436,0.586l0.171,0.127l1.062,0.479l1.164,0.037l1.268-0.457L82.671,97.431"/>
<polygon fill-rule="evenodd" clip-rule="evenodd" fill="#FFFFFF" points="96.582,89.633 96.582,89.633 95.505,90.139 94.705,91.018 
	94.301,92.136 94.279,92.313 94.279,92.812 94.279,93.768 94.279,100.096 91.317,100.096 91.317,86.63 94.279,86.63 94.279,88.045 
	95.393,87.053 96.777,86.502 98.414,86.361 98.414,89.418 "/>
<polygon fill-rule="evenodd" clip-rule="evenodd" fill="#FFFFFF" points="103.329,98.184 103.329,98.184 103.167,96.932 
	103.167,89.982 103.167,89.148 100.836,89.148 100.836,86.63 103.167,86.63 103.167,82.32 106.13,81.244 106.13,86.63 
	109.724,86.63 109.724,89.148 106.13,89.148 106.13,89.982 106.13,96.46 106.224,96.895 106.496,97.246 106.892,97.443 
	108.564,97.468 109.388,97.281 109.699,99.921 106.695,100.299 105.468,100.17 104.89,99.947 103.97,99.281 103.374,98.314 "/>
<path fill-rule="evenodd" clip-rule="evenodd" fill="#FFFFFF" d="M0.851,10.95L0.851,10.95l0.344-2.614L2.203,5.9l1.605-2.092
	L5.9,2.203l2.436-1.008l2.613-0.345h132.508l2.614,0.345l2.436,1.008l2.092,1.605l1.605,2.092l1.009,2.436l0.344,2.614v95.88
	l-0.344,2.613l-1.009,2.436l-1.605,2.092l-2.092,1.605l-2.436,1.009l-2.614,0.345H10.949l-2.613-0.345L5.9,115.576l-2.092-1.605
	l-1.605-2.092l-1.009-2.436l-0.344-2.613V10.95z M5.9,10.95L5.9,10.95l0.304-1.727l0.877-1.519l1.343-1.128l1.648-0.599L10.949,5.9
	h132.508l1.728,0.305l1.518,0.877l1.129,1.343l0.599,1.648l0.077,0.877v95.88l-0.305,1.727l-0.877,1.52l-1.342,1.126l-1.649,0.601
	l-0.877,0.076H10.949l-1.727-0.304l-1.519-0.877l-1.126-1.343l-0.601-1.648L5.9,106.83V10.95"/>
<polyline fill="none" stroke="#E03A3E" stroke-width="1.7" stroke-linecap="round" stroke-linejoin="round" stroke-miterlimit="10" points="
	0.85,10.95 0.85,10.95 1.194,8.336 2.203,5.9 3.808,3.808 5.9,2.203 8.336,1.195 10.95,0.85 143.457,0.85 146.072,1.195 
	148.508,2.203 150.6,3.808 152.205,5.9 153.212,8.336 153.557,10.95 153.557,106.83 153.212,109.443 152.205,111.879 150.6,113.971 
	148.508,115.576 146.072,116.585 143.457,116.93 10.95,116.93 8.336,116.585 5.9,115.576 3.808,113.971 2.203,111.879 
	1.194,109.443 0.85,106.83 0.85,10.95 "/>
</svg>
