<?xml version="1.0" encoding="UTF-8" standalone="no"?>
<!-- Created with Inkscape (http://www.inkscape.org/) -->

<svg
   xmlns:dc="http://purl.org/dc/elements/1.1/"
   xmlns:cc="http://creativecommons.org/ns#"
   xmlns:rdf="http://www.w3.org/1999/02/22-rdf-syntax-ns#"
   xmlns:svg="http://www.w3.org/2000/svg"
   xmlns="http://www.w3.org/2000/svg"
   xmlns:inkscape="http://www.inkscape.org/namespaces/inkscape"
   version="1.1"
   width="172.45"
   height="170.75"
   id="svg2"
   xml:space="preserve"><metadata
     id="metadata8"><rdf:RDF><cc:Work
         rdf:about=""><dc:format>image/svg+xml</dc:format><dc:type
           rdf:resource="http://purl.org/dc/dcmitype/StillImage" /></cc:Work></rdf:RDF></metadata><defs
     id="defs6"><clipPath
       id="clipPath18"><path
         d="M 0,1366 V 0 H 1379.6 V 1366 H 0 z"
         inkscape:connector-curvature="0"
         id="path20" /></clipPath></defs><g
     transform="matrix(1.25,0,0,-1.25,0,170.75)"
     id="g10"><g
       transform="scale(0.1,0.1)"
       id="g12"><g
         id="g14"><g
           clip-path="url(#clipPath18)"
           id="g16"><path
             d="m 1374.6,92 c 0,-48.051 -38.96,-87 -87,-87 H 92 C 43.957,5 5,43.949 5,92 v 1182 c 0,48.05 38.957,87 87.004,87 h 1195.6 c 48.04,0 87,-38.95 87,-87 V 92"
             inkscape:connector-curvature="0"
             id="path22"
             style="fill:#ffffff" /><path
             d="m 1374.6,92 c 0,-48.051 -38.96,-87 -87,-87 H 92 C 43.957,5 5,43.949 5,92 v 1182 c 0,48.05 38.957,87 87.004,87 h 1195.6 c 48.04,0 87,-38.95 87,-87 V 92 z"
             inkscape:connector-curvature="0"
             id="path24"
             style="fill:none;stroke:#0079c1;stroke-width:10" /><path
             d="m 1329.4,92 c 0,-23.102 -18.73,-41.82 -41.82,-41.82 H 91.98 C 68.882,50.18 50.16,68.898 50.16,92 v 1182 c 0,23.1 18.723,41.82 41.824,41.82 h 1195.6 c 23.09,0 41.82,-18.72 41.82,-41.82 V 92"
             inkscape:connector-curvature="0"
             id="path26"
             style="fill:#0079c1" /><path
             d="m 828.14,1238.1 c 43.945,0 79.582,-35.63 79.582,-79.58 0,-43.95 -35.637,-79.58 -79.582,-79.58 -43.957,0 -79.59,35.63 -79.59,79.58 0,43.95 35.633,79.58 79.59,79.58"
             inkscape:connector-curvature="0"
             id="path28"
             style="fill:#ffffff" /><path
             d="m 818.93,1070.2 c -24.395,0 -57.766,-6.97 -75.696,-33.37 L 624.224,842.6 c 0,0 -19.426,-39.836 21.914,-69.715 l 76.687,123.5 v -106.07 h 182.68 v 58.258 l 49.887,-23.899 c 0,0 37.351,-16.437 68.217,25.895 l -118.1,63.246 v 70.711 c 0,39.84 -39.754,85.66 -86.57,85.66"
             inkscape:connector-curvature="0"
             id="path30"
             style="fill:#ffffff" /><path
             d="M 905.5,771.36 H 722.82 V 605.03 l -75.445,-75.445 c 0,0 -10.707,-7.219 -10.707,-22.16 v -98.606 l 169.57,169.57 c 0,0 19.676,12.695 19.676,49.05 v -221.11 c 0,0 -1.25,-16.691 6.965,-24.902 8.215,-8.215 72.625,-72.961 72.625,-72.961 v 462.89"
             inkscape:connector-curvature="0"
             id="path32"
             style="fill:#ffffff" /><path
             d="m 933.22,207.19 v 98.758 H 774.06 V 404.71 H 614.9 v 98.758 H 455.74 v 98.75 H 296.58 v 98.765 H 138.08 V 662.667 H 258.2 V 563.909 H 417.36 V 465.147 H 576.52 V 366.39 h 159.16 v -98.75 h 159.15 v -98.77 h 159.15 v -38.851 h 38.39 V 207.19 H 933.21"
             inkscape:connector-curvature="0"
             id="path34"
             style="fill:#ffffff" /></g></g></g></g></svg>