<?xml version="1.0" encoding="UTF-8"?>
<svg xmlns="http://www.w3.org/2000/svg" width="600" height="600" viewBox="0 0 240 240">
	<title>UK traffic sign London Low Emission Zone (symbol, 2008–2023)</title>
	<circle fill="#5E9732" cx="120" cy="120" r="120"/>
	<path fill="#FFF" d="M111.2,114.5l-0.51-2.67l-0.57-2.35l-0.83-2.22l-0.95-2.22l-1.27-2.03l-1.27-1.78l-1.52-1.71l-1.65-1.46l-1.78-1.33l-1.97-1.14l-1.97-0.95l-2.16-0.7l-3.3-0.51l-3.37-0.19l-3.37,0.19l-3.3,0.51l-2.1,0.7l-2.03,0.95l-1.9,1.14l-1.84,1.33l-1.65,1.46l-1.46,1.71l-1.33,1.78l-1.21,2.03l-1.02,2.22l-0.83,2.22l-0.57,2.35l-0.51,2.67l-0.25,2.73l-0.13,2.79l0.13,2.73l0.25,2.73l0.51,2.73l0.57,2.35l0.83,2.22l1.02,2.16l1.21,2.1l1.33,1.78l1.46,1.65l1.65,1.52l1.84,1.33l1.9,1.14l2.03,0.89l2.1,0.76l3.3,0.51l3.37,0.13l3.37-0.13l3.3-0.51l2.16-0.76l1.97-0.89l1.97-1.14l1.78-1.33l1.65-1.52l1.52-1.65l1.27-1.78l1.27-2.1l0.95-2.16l0.83-2.22l0.57-2.35l0.51-2.73l0.32-2.73l0.13-2.73l-0.13-2.79L111.2,114.5zM102.94,122.76l-0.32,2.67l-0.57,2.67l-0.76,2.6l-0.76,1.59l-0.95,1.4l-1.14,1.33l-1.27,1.08l-1.65,1.08l-1.78,0.83l-1.84,0.57l-1.84,0.38l-1.97,0.13l-1.9-0.13l-1.9-0.38l-1.84-0.57l-1.78-0.83l-1.59-1.08l-1.33-1.08l-1.14-1.33l-0.95-1.4l-0.7-1.59l-0.83-2.6l-0.51-2.67l-0.32-2.67l-0.13-2.73l0.13-2.73l0.32-2.67l0.51-2.67l0.83-2.6l0.7-1.59l0.95-1.46l1.14-1.27l1.33-1.14l1.59-1.02l1.78-0.83l1.84-0.63l1.9-0.38l1.9-0.13l1.97,0.13l1.84,0.38l1.84,0.63l1.78,0.83l1.65,1.02l1.27,1.14l1.14,1.27l0.95,1.46l0.76,1.59l0.76,2.6l0.57,2.67l0.32,2.67l0.06,2.73L102.94,122.76zM20.81,94.82H54.4v7.68l-23.87,34.98H54.4v7.68H20.05v-7.68l23.87-34.98H20.81V94.82zM158.41,94.82h8.63v50.41h-9.59l-24.51-36.51v36.51h-8.63V94.82h9.65l24.44,36.44V94.82zM217.93,137.49v7.68h-33.14V94.82h31.68v7.62h-22.98v13.46h21.08v7.68h-21.08v13.9H217.93z"/>
</svg>